<svg width="32" height="33" viewBox="0 0 32 33" fill="none" xmlns="http://www.w3.org/2000/svg">
<g id="PROFILE">
<path id="Rectangle 10972" d="M7.5 23L14 22L24 22.5L25 26.5L24.5 29.5L14.5 31L7 29.5L7.5 23Z" fill="#FDBA12"/>
<path id="Rectangle 10973" d="M11.5 11.5L12.5 9.5L17.5 9L20.5 10.5L21.5 14.5L20 17L13 17.5L11.5 15V11.5Z" fill="#FDBA12"/>
<g id="Profile">
<path id="u" d="M16 32.5C24.8387 32.5 32 25.3387 32 16.5C32 7.66129 24.8387 0.5 16 0.5C7.16129 0.5 0 7.66129 0 16.5C0 25.3387 7.16129 32.5 16 32.5ZM26.2322 25.9258C25.7935 22.9323 23.2451 20.629 20.129 20.629C18.8065 20.629 18.1677 21.3645 16 21.3645C13.8323 21.3645 13.2 20.629 11.871 20.629C8.75485 20.629 6.20646 22.9323 5.76777 25.9258C3.47744 23.4419 2.06452 20.1387 2.06452 16.5C2.06452 8.81615 8.31615 2.56452 16 2.56452C23.6838 2.56452 29.9355 8.81615 29.9355 16.5C29.9355 20.1387 28.5226 23.4419 26.2322 25.9258ZM16 19.0806C19.1355 19.0806 21.6774 16.5387 21.6774 13.4032C21.6774 10.2678 19.1355 7.72581 16 7.72581C12.8645 7.72581 10.3226 10.2678 10.3226 13.4032C10.3226 16.5387 12.8645 19.0806 16 19.0806ZM16 17.0161C14.0064 17.0161 12.3871 15.3968 12.3871 13.4032C12.3871 11.4097 14.0064 9.79032 16 9.79032C17.9936 9.79032 19.6129 11.4097 19.6129 13.4032C19.6129 15.3968 17.9936 17.0161 16 17.0161ZM16 30.4355C12.9097 30.4355 10.0581 29.4097 7.74194 27.7V26.8226C7.74194 24.5452 9.59356 22.6936 11.871 22.6936C12.5871 22.6936 13.6452 23.4291 16 23.4291C18.3613 23.4291 19.4064 22.6936 20.129 22.6936C22.4064 22.6936 24.2581 24.5452 24.2581 26.8226V27.7C21.9419 29.4097 19.0903 30.4355 16 30.4355Z" fill="#1A202C"/>
</g>
</g>
</svg>
