<svg width="36" height="36" viewBox="0 0 36 36" fill="none" xmlns="http://www.w3.org/2000/svg">
<rect x="2" y="2" width="32" height="32" rx="16" fill="#FFEFCA"/>
<rect x="2" y="2" width="32" height="32" rx="16" stroke="#FFF6E2" stroke-width="4"/>
<path d="M18.668 11.332H14.0013C13.6477 11.332 13.3085 11.4725 13.0585 11.7226C12.8084 11.9726 12.668 12.3117 12.668 12.6654V23.332C12.668 23.6857 12.8084 24.0248 13.0585 24.2748C13.3085 24.5249 13.6477 24.6654 14.0013 24.6654H22.0013C22.3549 24.6654 22.6941 24.5249 22.9441 24.2748C23.1942 24.0248 23.3346 23.6857 23.3346 23.332V15.9987M18.668 11.332L23.3346 15.9987M18.668 11.332V15.9987H23.3346" stroke="#E4A309" stroke-width="1.33333" stroke-linecap="round" stroke-linejoin="round"/>
</svg>
