<svg width="42" height="43" viewBox="0 0 42 43" fill="none" xmlns="http://www.w3.org/2000/svg">
<rect opacity="0.2" width="40" height="40" rx="20" fill="#CFD3DB"/>
<rect x="7.66699" y="8" width="24" height="24" rx="12" fill="#4CAF50"/>
<path d="M19.7226 13.3613C16.0234 13.3613 13.028 16.3635 13.028 20.0626C13.028 23.7617 16.0234 26.7639 19.7226 26.7639C23.4284 26.7639 26.4306 23.7617 26.4306 20.0626C26.4306 16.3635 23.4284 13.3613 19.7226 13.3613ZM19.7293 25.4237C16.7673 25.4237 14.3682 23.0246 14.3682 20.0626C14.3682 17.1007 16.7673 14.7016 19.7293 14.7016C22.6912 14.7016 25.0903 17.1007 25.0903 20.0626C25.0903 23.0246 22.6912 25.4237 19.7293 25.4237Z" fill="white"/>
<path d="M20.0644 16.7119H19.0592V20.7327L22.5774 22.8436L23.08 22.0193L20.0644 20.2301V16.7119Z" fill="#FDFDFD"/>
</svg>
