<svg width="40" height="40" viewBox="0 0 40 40" fill="none" xmlns="http://www.w3.org/2000/svg">
<rect width="40" height="40" rx="20" fill="#CCE4F9"/>
<path d="M19.992 11.668C15.392 11.668 11.667 15.4013 11.667 20.0013C11.667 24.6013 15.392 28.3346 19.992 28.3346C24.6003 28.3346 28.3337 24.6013 28.3337 20.0013C28.3337 15.4013 24.6003 11.668 19.992 11.668ZM20.0003 26.668C16.317 26.668 13.3337 23.6846 13.3337 20.0013C13.3337 16.318 16.317 13.3346 20.0003 13.3346C23.6837 13.3346 26.667 16.318 26.667 20.0013C26.667 23.6846 23.6837 26.668 20.0003 26.668Z" fill="#2196F3"/>
<path d="M20.417 15.832H19.167V20.832L23.542 23.457L24.167 22.432L20.417 20.207V15.832Z" fill="#2196F3"/>
</svg>
