<svg width="42" height="43" viewBox="0 0 42 43" fill="none" xmlns="http://www.w3.org/2000/svg">
<rect opacity="0.2" width="40" height="40" rx="20" fill="#CFD3DB"/>
<rect x="7.66699" y="8" width="24" height="24" rx="12" fill="#2196F3"/>
<path d="M19.7226 13.3608C16.0234 13.3608 13.028 16.363 13.028 20.0621C13.028 23.7613 16.0234 26.7634 19.7226 26.7634C23.4284 26.7634 26.4306 23.7613 26.4306 20.0621C26.4306 16.363 23.4284 13.3608 19.7226 13.3608ZM19.7293 25.4232C16.7673 25.4232 14.3682 23.0241 14.3682 20.0621C14.3682 17.1002 16.7673 14.7011 19.7293 14.7011C22.6912 14.7011 25.0903 17.1002 25.0903 20.0621C25.0903 23.0241 22.6912 25.4232 19.7293 25.4232Z" fill="white"/>
<path d="M20.0643 16.7124H19.0591V20.7332L22.5773 22.8441L23.0799 22.0198L20.0643 20.2306V16.7124Z" fill="#FDFDFD"/>
</svg>
