<svg width="42" height="43" viewBox="0 0 42 43" fill="none" xmlns="http://www.w3.org/2000/svg">
<rect opacity="0.2" width="40" height="40" rx="20" fill="#CFD3DB"/>
<rect x="7.66699" y="8" width="24" height="24" rx="12" fill="#F26D0F"/>
<path d="M19.7227 13.3613C16.0236 13.3613 13.0281 16.3635 13.0281 20.0626C13.0281 23.7617 16.0236 26.7639 19.7227 26.7639C23.4285 26.7639 26.4307 23.7617 26.4307 20.0626C26.4307 16.3635 23.4285 13.3613 19.7227 13.3613ZM19.7294 25.4237C16.7674 25.4237 14.3683 23.0246 14.3683 20.0626C14.3683 17.1007 16.7674 14.7016 19.7294 14.7016C22.6913 14.7016 25.0904 17.1007 25.0904 20.0626C25.0904 23.0246 22.6913 25.4237 19.7294 25.4237Z" fill="white"/>
<path d="M20.0644 16.7119H19.0592V20.7327L22.5774 22.8436L23.08 22.0193L20.0644 20.2301V16.7119Z" fill="#FDFDFD"/>
</svg>
