<svg width="20" height="20" viewBox="0 0 20 20" fill="none" xmlns="http://www.w3.org/2000/svg">
<path d="M16.6693 7.45033C16.6606 7.37377 16.6438 7.29835 16.6193 7.22533V7.15033C16.5792 7.06464 16.5258 6.98588 16.4609 6.91699L11.4609 1.91699C11.392 1.85217 11.3133 1.79873 11.2276 1.75866C11.2027 1.75513 11.1775 1.75513 11.1526 1.75866C11.0679 1.71011 10.9745 1.67895 10.8776 1.66699H5.83594C5.1729 1.66699 4.53701 1.93038 4.06817 2.39923C3.59933 2.86807 3.33594 3.50395 3.33594 4.16699V15.8337C3.33594 16.4967 3.59933 17.1326 4.06817 17.6014C4.53701 18.0703 5.1729 18.3337 5.83594 18.3337H14.1693C14.8323 18.3337 15.4682 18.0703 15.937 17.6014C16.4059 17.1326 16.6693 16.4967 16.6693 15.8337V7.50033C16.6693 7.50033 16.6693 7.50033 16.6693 7.45033ZM11.6693 4.50866L13.8276 6.66699H12.5026C12.2816 6.66699 12.0696 6.57919 11.9133 6.42291C11.7571 6.26663 11.6693 6.05467 11.6693 5.83366V4.50866ZM15.0026 15.8337C15.0026 16.0547 14.9148 16.2666 14.7585 16.4229C14.6022 16.5792 14.3903 16.667 14.1693 16.667H5.83594C5.61492 16.667 5.40296 16.5792 5.24668 16.4229C5.0904 16.2666 5.0026 16.0547 5.0026 15.8337V4.16699C5.0026 3.94598 5.0904 3.73402 5.24668 3.57774C5.40296 3.42146 5.61492 3.33366 5.83594 3.33366H10.0026V5.83366C10.0026 6.4967 10.266 7.13259 10.7348 7.60143C11.2037 8.07027 11.8396 8.33366 12.5026 8.33366H15.0026V15.8337ZM11.6693 11.667H10.8359V10.8337C10.8359 10.6126 10.7481 10.4007 10.5919 10.2444C10.4356 10.0881 10.2236 10.0003 10.0026 10.0003C9.78159 10.0003 9.56963 10.0881 9.41335 10.2444C9.25707 10.4007 9.16927 10.6126 9.16927 10.8337V11.667H8.33594C8.11492 11.667 7.90296 11.7548 7.74668 11.9111C7.5904 12.0674 7.5026 12.2793 7.5026 12.5003C7.5026 12.7213 7.5904 12.9333 7.74668 13.0896C7.90296 13.2459 8.11492 13.3337 8.33594 13.3337H9.16927V14.167C9.16927 14.388 9.25707 14.6 9.41335 14.7562C9.56963 14.9125 9.78159 15.0003 10.0026 15.0003C10.2236 15.0003 10.4356 14.9125 10.5919 14.7562C10.7481 14.6 10.8359 14.388 10.8359 14.167V13.3337H11.6693C11.8903 13.3337 12.1022 13.2459 12.2585 13.0896C12.4148 12.9333 12.5026 12.7213 12.5026 12.5003C12.5026 12.2793 12.4148 12.0674 12.2585 11.9111C12.1022 11.7548 11.8903 11.667 11.6693 11.667Z" fill="#1A202C"/>
</svg>
