<svg width="24" height="24" viewBox="0 0 24 24" fill="none" xmlns="http://www.w3.org/2000/svg">
<g id="Checklist">
<path id="Vector" fill-rule="evenodd" clip-rule="evenodd" d="M2 12C2 6.47715 6.47715 2 12 2C17.5228 2 22 6.47715 22 12C22 17.5228 17.5228 22 12 22C6.47715 22 2 17.5228 2 12ZM16.878 9.0108C17.3016 9.45481 17.2851 10.1581 16.841 10.5817L14.1235 13.1743L11.4059 15.7669C10.9763 16.1767 10.3005 16.1764 9.87124 15.7662L7.15828 13.1737C6.71463 12.7497 6.69868 12.0464 7.12264 11.6027C7.5466 11.1591 8.24994 11.1431 8.69358 11.5671L10.6396 13.4267L15.3071 8.97382C15.7511 8.55024 16.4544 8.5668 16.878 9.0108Z" fill="white"/>
</g>
</svg>
