<svg width="40" height="40" viewBox="0 0 40 40" fill="none" xmlns="http://www.w3.org/2000/svg">
<rect width="40" height="40" rx="20" fill="#FEF0C7"/>
<g clip-path="url(#clip0_5724_86474)">
<path fill-rule="evenodd" clip-rule="evenodd" d="M19.9987 12.4987C15.8566 12.4987 12.4987 15.8566 12.4987 19.9987C12.4987 24.1408 15.8566 27.4987 19.9987 27.4987C24.1408 27.4987 27.4987 24.1408 27.4987 19.9987C27.4987 15.8566 24.1408 12.4987 19.9987 12.4987ZM10.832 19.9987C10.832 14.9361 14.9361 10.832 19.9987 10.832C25.0613 10.832 29.1654 14.9361 29.1654 19.9987C29.1654 25.0613 25.0613 29.1654 19.9987 29.1654C14.9361 29.1654 10.832 25.0613 10.832 19.9987Z" fill="#DC6803"/>
<path fill-rule="evenodd" clip-rule="evenodd" d="M20.0013 14.168C20.4615 14.168 20.8346 14.5411 20.8346 15.0013V19.4863L23.7073 20.9226C24.119 21.1284 24.2858 21.629 24.08 22.0406C23.8742 22.4523 23.3736 22.6192 22.962 22.4133L19.6286 20.7467C19.3463 20.6055 19.168 20.3169 19.168 20.0013V15.0013C19.168 14.5411 19.5411 14.168 20.0013 14.168Z" fill="#DC6803"/>
</g>
<defs>
<clipPath id="clip0_5724_86474">
<rect width="20" height="20" fill="white" transform="translate(10 10)"/>
</clipPath>
</defs>
</svg>
