<svg width="43" height="43" viewBox="0 0 43 43" fill="none" xmlns="http://www.w3.org/2000/svg">
<g clip-path="url(#clip0_4915_100631)">
<rect opacity="0.2" x="0.667969" width="40" height="40" rx="20" fill="#CFD3DB"/>
<rect x="9" y="8" width="24" height="24" rx="12" fill="#656565"/>
<path d="M17.668 16.667H17.0013C16.6477 16.667 16.3085 16.8075 16.0585 17.0575C15.8084 17.3076 15.668 17.6467 15.668 18.0003V24.0003C15.668 24.3539 15.8084 24.6931 16.0585 24.9431C16.3085 25.1932 16.6477 25.3337 17.0013 25.3337H23.0013C23.3549 25.3337 23.6941 25.1932 23.9441 24.9431C24.1942 24.6931 24.3346 24.3539 24.3346 24.0003V23.3337" stroke="white" stroke-linecap="round" stroke-linejoin="round"/>
<path d="M23.6667 15.3334L25.6667 17.3334M26.59 16.3901C26.8526 16.1275 27.0001 15.7714 27.0001 15.4001C27.0001 15.0287 26.8526 14.6726 26.59 14.4101C26.3274 14.1475 25.9713 14 25.6 14C25.2287 14 24.8726 14.1475 24.61 14.4101L19 20.0001V22.0001H21L26.59 16.3901Z" stroke="white" stroke-linecap="round" stroke-linejoin="round"/>
</g>
<defs>
<clipPath id="clip0_4915_100631">
<rect width="42" height="43" fill="white" transform="translate(0.667969)"/>
</clipPath>
</defs>
</svg>
