<svg width="30" height="30" viewBox="0 0 30 30" fill="none" xmlns="http://www.w3.org/2000/svg">
<g filter="url(#filter0_dd_4915_100720)">
<rect x="3" y="2" width="24" height="24" rx="4" fill="#1480D8" shape-rendering="crispEdges"/>
<path d="M15.0013 9C11.668 9 8.8213 11.0733 7.66797 14C8.8213 16.9267 11.668 19 15.0013 19C18.3346 19 21.1813 16.9267 22.3346 14C21.1813 11.0733 18.3346 9 15.0013 9ZM15.0013 17.3333C13.1613 17.3333 11.668 15.84 11.668 14C11.668 12.16 13.1613 10.6667 15.0013 10.6667C16.8413 10.6667 18.3346 12.16 18.3346 14C18.3346 15.84 16.8413 17.3333 15.0013 17.3333ZM15.0013 12C13.8946 12 13.0013 12.8933 13.0013 14C13.0013 15.1067 13.8946 16 15.0013 16C16.108 16 17.0013 15.1067 17.0013 14C17.0013 12.8933 16.108 12 15.0013 12Z" fill="#F6F8FA"/>
</g>
<defs>
<filter id="filter0_dd_4915_100720" x="0" y="0" width="30" height="30" filterUnits="userSpaceOnUse" color-interpolation-filters="sRGB">
<feFlood flood-opacity="0" result="BackgroundImageFix"/>
<feColorMatrix in="SourceAlpha" type="matrix" values="0 0 0 0 0 0 0 0 0 0 0 0 0 0 0 0 0 0 127 0" result="hardAlpha"/>
<feOffset dy="1"/>
<feGaussianBlur stdDeviation="1"/>
<feComposite in2="hardAlpha" operator="out"/>
<feColorMatrix type="matrix" values="0 0 0 0 0.0627451 0 0 0 0 0.0941176 0 0 0 0 0.156863 0 0 0 0.06 0"/>
<feBlend mode="normal" in2="BackgroundImageFix" result="effect1_dropShadow_4915_100720"/>
<feColorMatrix in="SourceAlpha" type="matrix" values="0 0 0 0 0 0 0 0 0 0 0 0 0 0 0 0 0 0 127 0" result="hardAlpha"/>
<feOffset dy="1"/>
<feGaussianBlur stdDeviation="1.5"/>
<feComposite in2="hardAlpha" operator="out"/>
<feColorMatrix type="matrix" values="0 0 0 0 0.0627451 0 0 0 0 0.0941176 0 0 0 0 0.156863 0 0 0 0.1 0"/>
<feBlend mode="normal" in2="effect1_dropShadow_4915_100720" result="effect2_dropShadow_4915_100720"/>
<feBlend mode="normal" in="SourceGraphic" in2="effect2_dropShadow_4915_100720" result="shape"/>
</filter>
</defs>
</svg>
