<svg width="28" height="28" viewBox="0 0 28 28" fill="none" xmlns="http://www.w3.org/2000/svg">
<path d="M13 20.821V16C13.0008 15.8684 12.9755 15.7379 12.9258 15.6161C12.876 15.4943 12.8027 15.3834 12.71 15.29L12.3568 15.6439L12.3558 15.6429M13 20.821L12.3558 15.6429M13 20.821L12.7764 20.9328L13 21.38H13.5V21.13L15 20.38L13 20.821ZM12.3558 15.6429C12.3555 15.6426 12.3553 15.6424 12.355 15.6421L7.05678 10.3539L6.20128 9.5H7.41H20.59H21.7987L20.9432 10.3539L15.645 15.6421C15.6447 15.6424 15.6445 15.6426 15.6442 15.6429C15.5983 15.6894 15.5619 15.7446 15.5371 15.8052C15.5122 15.8661 15.4996 15.9313 15.5 15.9971L15.5 16L15.5 20.38V20.689L15.2236 20.8272L13.2236 21.8272L12.5 22.189V21.38V16V15.9971H12.5C12.5004 15.9313 12.4878 15.8661 12.4629 15.8052C12.4381 15.7446 12.4017 15.6894 12.3558 15.6429ZM4.5 8.17017V8.17V7C4.5 6.33696 4.76339 5.70107 5.23223 5.23223C5.70107 4.76339 6.33696 4.5 7 4.5H21C21.663 4.5 22.2989 4.76339 22.7678 5.23223C23.2366 5.70107 23.5 6.33696 23.5 7V8.16219C23.4887 8.50621 23.4065 8.84423 23.2586 9.15506L23.21 9.25705V9.31943C23.0975 9.54759 22.948 9.75581 22.7674 9.93554L22.7664 9.93645L16.6464 16.0564L16.5 16.2029V16.41V20.999C16.4996 21.0912 16.4738 21.1814 16.4253 21.2598C16.3769 21.3381 16.3078 21.4016 16.2257 21.4431C16.2255 21.4433 16.2252 21.4434 16.225 21.4435L12.2264 23.4428L12.2264 23.4428L12.222 23.445C12.1526 23.4806 12.0759 23.4994 11.9979 23.5C11.9048 23.5002 11.8135 23.4744 11.7342 23.4255C11.6625 23.3805 11.6034 23.3181 11.5624 23.2439C11.5213 23.1696 11.4998 23.086 11.5 23.001V23V16.41V16.2019L11.3524 16.0553L5.19265 9.93554C5.19263 9.93553 5.19262 9.93551 5.1926 9.9355C5.01197 9.75578 4.86248 9.54757 4.75 9.31943V9.26574L4.70833 9.17017C4.57081 8.85473 4.49988 8.51429 4.5 8.17017ZM11 16.41V23V16.41ZM22 8.5H22.5V8V7C22.5 6.60218 22.342 6.22065 22.0607 5.93934C21.7794 5.65804 21.3978 5.5 21 5.5H7C6.60217 5.5 6.22064 5.65804 5.93934 5.93934C5.65804 6.22064 5.5 6.60217 5.5 7V8V8.5H6H22Z" fill="black" stroke="#10181F"/>
</svg>
