<svg width="16" height="16" viewBox="0 0 16 16" fill="none" xmlns="http://www.w3.org/2000/svg">
<g id="Group">
<path id="Vector" d="M2.04958 8.78333C2.01625 8.53333 1.99958 8.275 1.99958 8C1.99958 7.73333 2.01625 7.46667 2.05792 7.21667L0.366248 5.9C0.216249 5.78333 0.174581 5.55833 0.266248 5.39167L1.86625 2.625C1.96625 2.44167 2.17458 2.38333 2.35791 2.44167L4.34958 3.24167C4.76625 2.925 5.20792 2.65833 5.69958 2.45833L5.99958 0.341667C6.03292 0.141667 6.19958 0 6.39958 0H9.59958C9.79958 0 9.95792 0.141667 9.99125 0.341667L10.2912 2.45833C10.7829 2.65833 11.2329 2.93333 11.6412 3.24167L13.6329 2.44167C13.8162 2.375 14.0246 2.44167 14.1246 2.625L15.7162 5.39167C15.8162 5.56667 15.7829 5.78333 15.6162 5.9L13.9246 7.21667C13.9662 7.46667 13.9996 7.74167 13.9996 8C13.9996 8.25833 13.9829 8.53333 13.9412 8.78333L15.6329 10.1C15.7829 10.2167 15.8246 10.4417 15.7329 10.6083L14.1329 13.375C14.0329 13.5583 13.8246 13.6167 13.6412 13.5583L11.6496 12.7583C11.2329 13.075 10.7912 13.3417 10.2996 13.5417L9.99958 15.6583C9.95792 15.8583 9.79958 16 9.59958 16H6.39958C6.19958 16 6.03292 15.8583 6.00792 15.6583L5.70792 13.5417C5.21625 13.3417 4.76625 13.075 4.35791 12.7583L2.36625 13.5583C2.18291 13.625 1.97458 13.5583 1.87458 13.375L0.274581 10.6083C0.174582 10.425 0.216249 10.2167 0.374582 10.1L2.04958 8.78333ZM7.99958 11C9.64958 11 10.9996 9.65 10.9996 8C10.9996 6.35 9.64958 5 7.99958 5C6.34958 5 4.99958 6.35 4.99958 8C4.99958 9.65 6.34958 11 7.99958 11Z" fill="#1A1D22"/>
</g>
</svg>
