<svg width="20" height="20" viewBox="0 0 20 20" fill="none" xmlns="http://www.w3.org/2000/svg">
<g id="ic:round-notifications">
<path id="Vector" d="M9.99878 18.3337C8.91114 18.3337 8.02126 17.5644 8.02126 16.6243H11.9763C11.9763 17.0776 11.768 17.5124 11.3971 17.833C11.0262 18.1536 10.5233 18.3337 9.99878 18.3337ZM4.06621 13.2055V8.93195C4.06621 6.30802 5.68778 4.11144 8.51564 3.53024V2.94904C8.51564 2.23964 9.17811 1.66699 9.99878 1.66699C10.8195 1.66699 11.4819 2.23964 11.4819 2.94904V3.53024C14.3197 4.11144 15.9314 6.29947 15.9314 8.93195V13.2055L17.2069 14.308C17.8298 14.8465 17.3947 15.7696 16.5147 15.7696H3.49273C2.61273 15.7696 2.16779 14.8465 2.79071 14.308L4.06621 13.2055Z" fill="#1A1D22"/>
</g>
</svg>
