<svg width="42" height="43" viewBox="0 0 42 43" fill="none" xmlns="http://www.w3.org/2000/svg">
<rect opacity="0.2" width="40" height="40" rx="20" fill="#CFD3DB"/>
<rect x="8" y="8" width="23.8129" height="23.8129" rx="11.9064" fill="#00AC64"/>
<g clip-path="url(#clip0_5909_79882)">
<path d="M12.165 14.0469H15.6855C16.4421 14.0469 17.0869 14.1608 17.6201 14.3887C18.1533 14.6165 18.5612 14.9538 18.8438 15.4004C19.1309 15.8424 19.2744 16.3893 19.2744 17.041C19.2744 17.5378 19.1833 17.9753 19.001 18.3535C18.8187 18.7318 18.5612 19.0508 18.2285 19.3105C17.8958 19.5658 17.4993 19.764 17.0391 19.9053L16.5195 20.1582H13.3545L13.3408 18.7979H15.7129C16.123 18.7979 16.4648 18.7249 16.7383 18.5791C17.0117 18.4333 17.2168 18.235 17.3535 17.9844C17.4948 17.7292 17.5654 17.4421 17.5654 17.123C17.5654 16.7767 17.4971 16.4759 17.3604 16.2207C17.2282 15.9609 17.0231 15.7627 16.7451 15.626C16.4671 15.4847 16.1139 15.4141 15.6855 15.4141H13.8809V24H12.165V14.0469ZM17.8457 24L15.5078 19.5293L17.3057 19.5225L19.6777 23.9111V24H17.8457ZM22.4736 18.0254V26.8438H20.8262V16.6035H22.3438L22.4736 18.0254ZM27.293 20.2334V20.377C27.293 20.9147 27.2292 21.4137 27.1016 21.874C26.9785 22.3298 26.7939 22.7285 26.5479 23.0703C26.3063 23.4076 26.0078 23.6696 25.6523 23.8564C25.2969 24.0433 24.8867 24.1367 24.4219 24.1367C23.9616 24.1367 23.5583 24.0524 23.2119 23.8838C22.8701 23.7106 22.5807 23.4668 22.3438 23.1523C22.1068 22.8379 21.9154 22.4688 21.7695 22.0449C21.6283 21.6165 21.528 21.1471 21.4688 20.6367V20.083C21.528 19.5407 21.6283 19.0485 21.7695 18.6064C21.9154 18.1644 22.1068 17.7839 22.3438 17.4648C22.5807 17.1458 22.8701 16.8997 23.2119 16.7266C23.5537 16.5534 23.9525 16.4668 24.4082 16.4668C24.873 16.4668 25.2855 16.5579 25.6455 16.7402C26.0055 16.918 26.3086 17.1732 26.5547 17.5059C26.8008 17.834 26.9854 18.2305 27.1084 18.6953C27.2314 19.1556 27.293 19.6683 27.293 20.2334ZM25.6455 20.377V20.2334C25.6455 19.8916 25.6136 19.5749 25.5498 19.2832C25.486 18.987 25.3857 18.7272 25.249 18.5039C25.1123 18.2806 24.9368 18.1074 24.7227 17.9844C24.513 17.8568 24.2601 17.793 23.9639 17.793C23.6722 17.793 23.4215 17.8431 23.2119 17.9434C23.0023 18.0391 22.8268 18.1735 22.6855 18.3467C22.5443 18.5199 22.4349 18.7227 22.3574 18.9551C22.2799 19.1829 22.2253 19.4313 22.1934 19.7002V21.0264C22.248 21.3545 22.3415 21.6553 22.4736 21.9287C22.6058 22.2021 22.7926 22.4209 23.0342 22.585C23.2803 22.7445 23.5947 22.8242 23.9775 22.8242C24.2738 22.8242 24.5267 22.7604 24.7363 22.6328C24.946 22.5052 25.1169 22.3298 25.249 22.1064C25.3857 21.8786 25.486 21.6165 25.5498 21.3203C25.6136 21.0241 25.6455 20.7096 25.6455 20.377Z" fill="#FDFDFD"/>
</g>
<defs>
<clipPath id="clip0_5909_79882">
<rect width="15.89" height="15.89" fill="white" transform="translate(11.9614 11.9609)"/>
</clipPath>
</defs>
</svg>
