<svg width="24" height="24" viewBox="0 0 24 24" fill="none" xmlns="http://www.w3.org/2000/svg">
<path fill-rule="evenodd" clip-rule="evenodd" d="M12 2C6.47715 2 2 6.47715 2 12C2 17.5228 6.47715 22 12 22C17.5228 22 22 17.5228 22 12C22 6.47715 17.5228 2 12 2ZM13.2963 7.92593C13.2963 8.74413 12.633 9.40741 11.8148 9.40741C10.9966 9.40741 10.3333 8.74413 10.3333 7.92593C10.3333 7.10773 10.9966 6.44444 11.8148 6.44444C12.633 6.44444 13.2963 7.10773 13.2963 7.92593ZM11.2593 10.5185C10.6456 10.5185 10.1481 11.016 10.1481 11.6296C10.1481 12.1134 10.4573 12.525 10.8889 12.6775V16.4444C10.8889 17.0581 11.3863 17.5556 12 17.5556H12.7407C13.3544 17.5556 13.8519 17.0581 13.8519 16.4444C13.8519 15.9607 13.5427 15.5491 13.1111 15.3966V11.6296C13.1111 11.016 12.6136 10.5185 12 10.5185H11.2593Z" fill="white"/>
</svg>
