<svg width="16" height="16" viewBox="0 0 16 16" fill="none" xmlns="http://www.w3.org/2000/svg">
<g id="mingcute:send-fill" clip-path="url(#clip0_5909_80004)">
<g id="Group">
<path id="Vector" d="M13.49 3.79105C13.778 2.99439 13.006 2.22239 12.2093 2.51105L2.47267 6.03239C1.67334 6.32172 1.57667 7.41239 2.31201 7.83839L5.42001 9.63772L8.19534 6.86239C8.32108 6.74095 8.48948 6.67375 8.66428 6.67527C8.83907 6.67679 9.00628 6.7469 9.12989 6.87051C9.25349 6.99411 9.3236 7.16132 9.32512 7.33612C9.32664 7.51092 9.25945 7.67932 9.13801 7.80505L6.36267 10.5804L8.16267 13.6884C8.58801 14.4237 9.67867 14.3264 9.96801 13.5277L13.49 3.79105Z" fill="#F2F5FA"/>
</g>
</g>
<defs>
<clipPath id="clip0_5909_80004">
<rect width="16" height="16" fill="white"/>
</clipPath>
</defs>
</svg>
