<svg xmlns="http://www.w3.org/2000/svg" width="20" height="20" viewbox="0 0 20 20" fill="none" class="ms-2">
  <path d="M10 1.66663C8.35185 1.66663 6.74068 2.15537 5.37027 3.07105C3.99986 3.98672 2.93176 5.28821 2.30103 6.81093C1.6703 8.33365 1.50527 10.0092 1.82681 11.6257C2.14836 13.2422 2.94203 14.7271 4.10747 15.8925C5.27291 17.058 6.75776 17.8516 8.37427 18.1732C9.99078 18.4947 11.6663 18.3297 13.1891 17.699C14.7118 17.0682 16.0133 16.0001 16.9289 14.6297C17.8446 13.2593 18.3334 11.6481 18.3334 9.99996C18.3334 8.90561 18.1178 7.82198 17.699 6.81093C17.2802 5.79988 16.6664 4.88122 15.8926 4.1074C15.1188 3.33358 14.2001 2.71975 13.1891 2.30096C12.178 1.88217 11.0944 1.66663 10 1.66663ZM10 16.6666C8.68148 16.6666 7.39255 16.2756 6.29622 15.5431C5.19989 14.8105 4.34541 13.7694 3.84083 12.5512C3.33624 11.333 3.20422 9.99256 3.46146 8.69936C3.71869 7.40615 4.35363 6.21826 5.28598 5.28591C6.21833 4.35356 7.40622 3.71863 8.69942 3.46139C9.99263 3.20416 11.3331 3.33618 12.5512 3.84076C13.7694 4.34535 14.8106 5.19983 15.5432 6.29616C16.2757 7.39249 16.6667 8.68142 16.6667 9.99996C16.6667 11.7681 15.9643 13.4638 14.7141 14.714C13.4638 15.9642 11.7681 16.6666 10 16.6666ZM13.3334 9.16663H10.8334V6.66663C10.8334 6.44561 10.7456 6.23365 10.5893 6.07737C10.433 5.92109 10.221 5.83329 10 5.83329C9.77901 5.83329 9.56705 5.92109 9.41077 6.07737C9.25449 6.23365 9.16669 6.44561 9.16669 6.66663V9.16663H6.66669C6.44568 9.16663 6.23372 9.25442 6.07744 9.4107C5.92115 9.56698 5.83336 9.77895 5.83336 9.99996C5.83336 10.221 5.92115 10.4329 6.07744 10.5892C6.23372 10.7455 6.44568 10.8333 6.66669 10.8333H9.16669V13.3333C9.16669 13.5543 9.25449 13.7663 9.41077 13.9225C9.56705 14.0788 9.77901 14.1666 10 14.1666C10.221 14.1666 10.433 14.0788 10.5893 13.9225C10.7456 13.7663 10.8334 13.5543 10.8334 13.3333V10.8333H13.3334C13.5544 10.8333 13.7663 10.7455 13.9226 10.5892C14.0789 10.4329 14.1667 10.221 14.1667 9.99996C14.1667 9.77895 14.0789 9.56698 13.9226 9.4107C13.7663 9.25442 13.5544 9.16663 13.3334 9.16663Z" fill="white"/>
</svg>