<svg width="16" height="16" viewBox="0 0 16 16" fill="none" xmlns="http://www.w3.org/2000/svg">
<rect width="16" height="16" rx="8" fill="#1A1D22"/>
<path d="M7.5479 8.14268C7.92388 7.46396 8.64656 7.06356 9.06649 6.46296C9.51083 5.83306 9.2618 4.65628 8.00201 4.65628C7.1768 4.65628 6.77152 5.28129 6.60061 5.79888L5.33594 5.26664C5.68262 4.22658 6.62503 3.33301 7.99713 3.33301C9.14461 3.33301 9.93076 3.85548 10.3312 4.50979C10.673 5.07133 10.8732 6.12115 10.3458 6.90242C9.75986 7.7667 9.19833 8.03038 8.89558 8.58703C8.77351 8.81164 8.72468 8.95813 8.72468 9.6808H7.31352C7.30864 9.29993 7.25004 8.6798 7.5479 8.14268ZM8.97859 11.634C8.97859 12.1711 8.53913 12.6106 8.00201 12.6106C7.46489 12.6106 7.02543 12.1711 7.02543 11.634C7.02543 11.0968 7.46489 10.6574 8.00201 10.6574C8.53913 10.6574 8.97859 11.0968 8.97859 11.634Z" fill="white"/>
</svg>
