<svg width="34" height="34" viewBox="0 0 34 34" fill="none" xmlns="http://www.w3.org/2000/svg">
<rect x="1" y="1" width="32" height="32" rx="16" fill="#F2F5FA"/>
<rect x="1" y="1" width="32" height="32" rx="16" stroke="#F6F8FB" stroke-width="2"/>
<path d="M13.875 14.5C13.875 14.3342 13.9408 14.1753 14.0581 14.0581C14.1753 13.9408 14.3342 13.875 14.5 13.875H19.5C19.6658 13.875 19.8247 13.9408 19.9419 14.0581C20.0592 14.1753 20.125 14.3342 20.125 14.5C20.125 14.6658 20.0592 14.8247 19.9419 14.9419C19.8247 15.0592 19.6658 15.125 19.5 15.125H14.5C14.3342 15.125 14.1753 15.0592 14.0581 14.9419C13.9408 14.8247 13.875 14.6658 13.875 14.5ZM14.5 17.625H19.5C19.6658 17.625 19.8247 17.5592 19.9419 17.4419C20.0592 17.3247 20.125 17.1658 20.125 17C20.125 16.8342 20.0592 16.6753 19.9419 16.5581C19.8247 16.4408 19.6658 16.375 19.5 16.375H14.5C14.3342 16.375 14.1753 16.4408 14.0581 16.5581C13.9408 16.6753 13.875 16.8342 13.875 17C13.875 17.1658 13.9408 17.3247 14.0581 17.4419C14.1753 17.5592 14.3342 17.625 14.5 17.625ZM17 18.875H14.5C14.3342 18.875 14.1753 18.9408 14.0581 19.0581C13.9408 19.1753 13.875 19.3342 13.875 19.5C13.875 19.6658 13.9408 19.8247 14.0581 19.9419C14.1753 20.0592 14.3342 20.125 14.5 20.125H17C17.1658 20.125 17.3247 20.0592 17.4419 19.9419C17.5592 19.8247 17.625 19.6658 17.625 19.5C17.625 19.3342 17.5592 19.1753 17.4419 19.0581C17.3247 18.9408 17.1658 18.875 17 18.875ZM24.5 10.75V19.2414C24.5005 19.4056 24.4684 19.5683 24.4055 19.72C24.3426 19.8717 24.2502 20.0093 24.1336 20.125L20.125 24.1336C20.0093 24.2502 19.8717 24.3426 19.72 24.4055C19.5683 24.4684 19.4056 24.5005 19.2414 24.5H10.75C10.4185 24.5 10.1005 24.3683 9.86612 24.1339C9.6317 23.8995 9.5 23.5815 9.5 23.25V10.75C9.5 10.4185 9.6317 10.1005 9.86612 9.86612C10.1005 9.6317 10.4185 9.5 10.75 9.5H23.25C23.5815 9.5 23.8995 9.6317 24.1339 9.86612C24.3683 10.1005 24.5 10.4185 24.5 10.75ZM10.75 23.25H18.875V19.5C18.875 19.3342 18.9408 19.1753 19.0581 19.0581C19.1753 18.9408 19.3342 18.875 19.5 18.875H23.25V10.75H10.75V23.25ZM20.125 20.125V22.3672L22.3664 20.125H20.125Z" fill="#5E677B"/>
</svg>
