<svg width="40" height="40" viewBox="0 0 40 40" fill="none" xmlns="http://www.w3.org/2000/svg">
<rect width="40" height="40" rx="20" fill="#D1FADF"/>
<g clip-path="url(#clip0_4915_125580)">
<path d="M28.3346 19.2335V20.0002C28.3336 21.7972 27.7517 23.5458 26.6757 24.9851C25.5998 26.4244 24.0874 27.4773 22.3641 27.9868C20.6408 28.4963 18.799 28.4351 17.1134 27.8124C15.4277 27.1896 13.9885 26.0386 13.0104 24.5311C12.0324 23.0236 11.5678 21.2403 11.686 19.4471C11.8043 17.654 12.499 15.9472 13.6665 14.5811C14.8341 13.2151 16.412 12.263 18.1648 11.867C19.9176 11.471 21.7515 11.6522 23.393 12.3835M28.3346 13.3335L20.0013 21.6752L17.5013 19.1752" stroke="#039855" stroke-width="1.66667" stroke-linecap="round" stroke-linejoin="round"/>
</g>
<defs>
<clipPath id="clip0_4915_125580">
<rect width="20" height="20" fill="white" transform="translate(10 10)"/>
</clipPath>
</defs>
</svg>
