<svg width="32" height="32" viewBox="0 0 32 32" fill="none" xmlns="http://www.w3.org/2000/svg">
<rect width="32" height="32" rx="16" fill="#F2F5FA"/>
<path d="M10.0496 16.7833C10.0162 16.5333 9.99958 16.275 9.99958 16C9.99958 15.7333 10.0162 15.4667 10.0579 15.2167L8.36625 13.9C8.21625 13.7833 8.17458 13.5583 8.26625 13.3917L9.86625 10.625C9.96625 10.4417 10.1746 10.3833 10.3579 10.4417L12.3496 11.2417C12.7662 10.925 13.2079 10.6583 13.6996 10.4583L13.9996 8.34167C14.0329 8.14167 14.1996 8 14.3996 8H17.5996C17.7996 8 17.9579 8.14167 17.9912 8.34167L18.2912 10.4583C18.7829 10.6583 19.2329 10.9333 19.6412 11.2417L21.6329 10.4417C21.8162 10.375 22.0246 10.4417 22.1246 10.625L23.7162 13.3917C23.8162 13.5667 23.7829 13.7833 23.6162 13.9L21.9246 15.2167C21.9662 15.4667 21.9996 15.7417 21.9996 16C21.9996 16.2583 21.9829 16.5333 21.9412 16.7833L23.6329 18.1C23.7829 18.2167 23.8246 18.4417 23.7329 18.6083L22.1329 21.375C22.0329 21.5583 21.8246 21.6167 21.6412 21.5583L19.6496 20.7583C19.2329 21.075 18.7912 21.3417 18.2996 21.5417L17.9996 23.6583C17.9579 23.8583 17.7996 24 17.5996 24H14.3996C14.1996 24 14.0329 23.8583 14.0079 23.6583L13.7079 21.5417C13.2162 21.3417 12.7662 21.075 12.3579 20.7583L10.3662 21.5583C10.1829 21.625 9.97458 21.5583 9.87458 21.375L8.27458 18.6083C8.17458 18.425 8.21625 18.2167 8.37458 18.1L10.0496 16.7833ZM15.9996 19C17.6496 19 18.9996 17.65 18.9996 16C18.9996 14.35 17.6496 13 15.9996 13C14.3496 13 12.9996 14.35 12.9996 16C12.9996 17.65 14.3496 19 15.9996 19Z" fill="#1A1D22"/>
</svg>
