<svg width="43" height="43" viewBox="0 0 43 43" fill="none" xmlns="http://www.w3.org/2000/svg">
<g clip-path="url(#clip0_4915_100668)">
<rect opacity="0.2" width="40" height="40" rx="20" fill="#CFD3DB"/>
<rect x="8" y="8" width="24.1247" height="24.1247" rx="12.0623" fill="#00AC64"/>
<path d="M18.048 22.8558L15.7226 20.5304C15.5973 20.4051 15.4274 20.3347 15.2502 20.3347C15.073 20.3347 14.903 20.4051 14.7777 20.5304C14.6524 20.6557 14.582 20.8257 14.582 21.0029C14.582 21.0906 14.5993 21.1775 14.6329 21.2585C14.6665 21.3396 14.7157 21.4133 14.7777 21.4753L17.5789 24.2764C17.8402 24.5378 18.2624 24.5378 18.5237 24.2764L25.6137 17.1865C25.739 17.0612 25.8094 16.8912 25.8094 16.714C25.8094 16.5368 25.739 16.3669 25.6137 16.2416C25.4884 16.1163 25.3185 16.0459 25.1413 16.0459C24.9641 16.0459 24.7941 16.1163 24.6688 16.2416L18.048 22.8558Z" fill="white"/>
</g>
<defs>
<clipPath id="clip0_4915_100668">
<rect width="42" height="43" fill="white" transform="translate(0.332031)"/>
</clipPath>
</defs>
</svg>
