<svg width="40" height="40" viewBox="0 0 40 40" fill="none" xmlns="http://www.w3.org/2000/svg">
<rect width="40" height="40" rx="20" fill="#FEF0C7"/>
<path d="M19.9997 16.6667V20M19.9997 23.3333H20.008M18.5747 12.3833L11.5163 24.1667C11.3708 24.4187 11.2938 24.7044 11.293 24.9954C11.2922 25.2865 11.3676 25.5726 11.5117 25.8254C11.6558 26.0783 11.8636 26.289 12.1144 26.4366C12.3652 26.5841 12.6503 26.6635 12.9413 26.6667H27.058C27.349 26.6635 27.6341 26.5841 27.8849 26.4366C28.1357 26.289 28.3435 26.0783 28.4876 25.8254C28.6317 25.5726 28.7071 25.2865 28.7063 24.9954C28.7055 24.7044 28.6285 24.4187 28.483 24.1667L21.4247 12.3833C21.2761 12.1384 21.0669 11.9359 20.8173 11.7954C20.5677 11.6549 20.2861 11.5811 19.9997 11.5811C19.7132 11.5811 19.4316 11.6549 19.182 11.7954C18.9324 11.9359 18.7232 12.1384 18.5747 12.3833Z" stroke="#DC6803" stroke-width="1.66667" stroke-linecap="round" stroke-linejoin="round"/>
</svg>
