<svg width="42" height="43" viewBox="0 0 42 43" fill="none" xmlns="http://www.w3.org/2000/svg">
<rect opacity="0.2" width="40" height="40" rx="20" fill="#CFD3DB"/>
<rect x="8" y="8" width="24" height="24" rx="12" fill="#FDBA12"/>
<path d="M25.6324 26.125H14.3674C13.6122 26.125 13.0054 25.8266 12.7024 25.3064C12.3994 24.7854 12.4362 24.1053 12.8044 23.4422L18.4872 13.1779C18.8577 12.5082 19.4082 12.125 19.9962 12.125C20.5849 12.125 21.1347 12.5082 21.5052 13.1765L27.1947 23.4429C27.5622 24.1068 27.5997 24.7862 27.2967 25.3071C26.9937 25.8273 26.3877 26.125 25.6324 26.125ZM19.9962 13.2023C19.8087 13.2023 19.5949 13.3894 19.4209 13.7026L13.7389 23.9661C13.5604 24.2888 13.5192 24.5776 13.6257 24.7604C13.7322 24.9431 14.0029 25.0477 14.3682 25.0477H25.6324C25.9984 25.0477 26.2699 24.9431 26.3757 24.7604C26.4814 24.5784 26.4402 24.2888 26.2617 23.9675L20.5722 13.7018C20.3997 13.3887 20.1837 13.2015 19.9969 13.2015M19.9999 21.2648C19.8564 21.2628 19.7196 21.205 19.6195 21.104C19.5194 21.003 19.4641 20.8671 19.4659 20.7262V15.8777C19.4659 15.5801 19.7052 15.3384 19.9999 15.3384C20.2954 15.3384 20.5347 15.5801 20.5347 15.877V20.7254C20.5347 21.0238 20.2947 21.2648 19.9999 21.2648ZM19.9962 23.8983C20.4567 23.8983 20.8287 23.5217 20.8287 23.0568C20.8287 22.5926 20.4567 22.2168 19.9962 22.2168C19.5364 22.2168 19.1637 22.5926 19.1637 23.0568C19.1637 23.521 19.5364 23.8983 19.9962 23.8983Z" fill="white"/>
</svg>
