<svg width="40" height="40" viewBox="0 0 40 40" fill="none" xmlns="http://www.w3.org/2000/svg">
<rect width="40" height="40" rx="20" fill="#E0EEFA"/>
<path d="M20.832 12.5C16.6904 12.5 13.332 15.8583 13.332 20H10.832L14.0737 23.2417L14.132 23.3583L17.4987 20H14.9987C14.9987 16.775 17.607 14.1667 20.832 14.1667C24.057 14.1667 26.6654 16.775 26.6654 20C26.6654 23.225 24.057 25.8333 20.832 25.8333C19.2237 25.8333 17.7654 25.175 16.7154 24.1167L15.532 25.3C16.8904 26.6583 18.757 27.5 20.832 27.5C24.9737 27.5 28.332 24.1417 28.332 20C28.332 15.8583 24.9737 12.5 20.832 12.5ZM19.9987 16.6667V20.8333L23.5654 22.95L24.1654 21.9417L21.2487 20.2083V16.6667H19.9987Z" fill="#2196F3"/>
</svg>
