<svg width="32" height="32" viewBox="0 0 32 32" fill="none" xmlns="http://www.w3.org/2000/svg">
<rect width="32" height="32" rx="16" fill="#F2F5FA"/>
<path d="M15.9988 24.3337C14.9111 24.3337 14.0213 23.5644 14.0213 22.6243H17.9763C17.9763 23.0776 17.768 23.5124 17.3971 23.833C17.0262 24.1536 16.5233 24.3337 15.9988 24.3337ZM10.0662 19.2055V14.932C10.0662 12.308 11.6878 10.1114 14.5156 9.53024V8.94904C14.5156 8.23964 15.1781 7.66699 15.9988 7.66699C16.8195 7.66699 17.4819 8.23964 17.4819 8.94904V9.53024C20.3197 10.1114 21.9314 12.2995 21.9314 14.932V19.2055L23.2069 20.308C23.8298 20.8465 23.3947 21.7696 22.5147 21.7696H9.49273C8.61273 21.7696 8.16779 20.8465 8.79071 20.308L10.0662 19.2055Z" fill="#1A1D22"/>
</svg>
