<svg width="28" height="28" viewBox="0 0 28 28" fill="none" xmlns="http://www.w3.org/2000/svg">
<path d="M8.35577 16.9375L8.64233 16.6411C8.68861 16.5954 8.7433 16.5592 8.80337 16.5343C8.86453 16.5089 8.93008 16.4959 8.99628 16.4959C9.06248 16.4959 9.12803 16.5089 9.18919 16.5343C9.25035 16.5596 9.30592 16.5967 9.35273 16.6436C9.39954 16.6904 9.43667 16.7459 9.462 16.8071C9.48733 16.8683 9.50037 16.9338 9.50037 17C9.50037 17.0662 9.48733 17.1317 9.462 17.1929C9.43667 17.2541 9.39954 17.3096 9.35273 17.3564L7.35725 19.3519C7.3104 19.396 7.25549 19.4306 7.19553 19.4538L7.18474 19.458L7.17415 19.4627C7.11812 19.4874 7.05754 19.5002 6.99628 19.5002C6.93502 19.5002 6.87444 19.4874 6.81841 19.4627L6.80782 19.458L6.79703 19.4538C6.73706 19.4306 6.68216 19.396 6.63531 19.3519L4.63983 17.3564C4.5453 17.2619 4.49219 17.1337 4.49219 17C4.49219 16.8663 4.5453 16.7381 4.63983 16.6436C4.73437 16.549 4.86258 16.4959 4.99628 16.4959C5.1288 16.4959 5.25593 16.5481 5.35022 16.6411L5.63679 16.9375L6.49628 17.8266V16.59V9C6.49628 8.86739 6.54896 8.74022 6.64273 8.64645C6.73649 8.55268 6.86367 8.5 6.99628 8.5C7.12889 8.5 7.25606 8.55268 7.34983 8.64645C7.4436 8.74022 7.49628 8.86739 7.49628 9V16.59V17.8266L8.35577 16.9375ZM22.9963 9.5H12.9963C12.8637 9.5 12.7365 9.44732 12.6427 9.35355C12.549 9.25978 12.4963 9.13261 12.4963 9C12.4963 8.86739 12.549 8.74022 12.6427 8.64645C12.7365 8.55268 12.8637 8.5 12.9963 8.5H22.9963C23.1289 8.5 23.2561 8.55268 23.3498 8.64645C23.4436 8.74021 23.4963 8.86739 23.4963 9C23.4963 9.13261 23.4436 9.25979 23.3498 9.35355C23.2561 9.44732 23.1289 9.5 22.9963 9.5ZM12.9963 13.5H22.9963C23.1289 13.5 23.2561 13.5527 23.3498 13.6464C23.4436 13.7402 23.4963 13.8674 23.4963 14C23.4963 14.1326 23.4436 14.2598 23.3498 14.3536C23.2561 14.4473 23.1289 14.5 22.9963 14.5H12.9963C12.8637 14.5 12.7365 14.4473 12.6427 14.3536C12.549 14.2598 12.4963 14.1326 12.4963 14C12.4963 13.8674 12.549 13.7402 12.6427 13.6464C12.7365 13.5527 12.8637 13.5 12.9963 13.5ZM12.9963 18.5H22.9963C23.1289 18.5 23.2561 18.5527 23.3498 18.6464C23.4436 18.7402 23.4963 18.8674 23.4963 19C23.4963 19.1326 23.4436 19.2598 23.3498 19.3536C23.2561 19.4473 23.1289 19.5 22.9963 19.5H12.9963C12.8637 19.5 12.7365 19.4473 12.6427 19.3536C12.549 19.2598 12.4963 19.1326 12.4963 19C12.4963 18.8674 12.549 18.7402 12.6427 18.6464C12.7365 18.5527 12.8637 18.5 12.9963 18.5Z" fill="black" stroke="#10181F"/>
</svg>
