<svg width="42" height="43" viewBox="0 0 42 43" fill="none" xmlns="http://www.w3.org/2000/svg">
<rect opacity="0.2" width="40" height="40" rx="20" fill="#CFD3DB"/>
<rect x="8" y="8" width="23.8139" height="23.8139" rx="11.9069" fill="#FDBA12"/>
<path d="M19.8959 13.2871C16.241 13.2871 13.2812 16.2534 13.2812 19.9084C13.2812 23.5633 16.241 26.5296 19.8959 26.5296C23.5574 26.5296 26.5238 23.5633 26.5238 19.9084C26.5238 16.2534 23.5574 13.2871 19.8959 13.2871ZM19.9025 25.2054C16.9759 25.2054 14.6055 22.835 14.6055 19.9084C14.6055 16.9818 16.9759 14.6114 19.9025 14.6114C22.8291 14.6114 25.1995 16.9818 25.1995 19.9084C25.1995 22.835 22.8291 25.2054 19.9025 25.2054Z" fill="#FDFDFD"/>
<path d="M20.2354 16.5977H19.2422V20.5704L22.7183 22.6561L23.2149 21.8417L20.2354 20.0738V16.5977Z" fill="#FDFDFD"/>
</svg>
