<svg width="43" height="43" viewBox="0 0 43 43" fill="none" xmlns="http://www.w3.org/2000/svg">
<g clip-path="url(#clip0_4915_100640)">
<rect opacity="0.2" x="0.332031" width="40" height="40" rx="20" fill="#CFD3DB"/>
<rect x="8" y="8" width="24" height="24" rx="12" fill="#2FA6D7"/>
<path d="M27.0964 15.5387V19.5595C27.0964 19.6928 27.0435 19.8206 26.9492 19.9149C26.855 20.0092 26.7271 20.0621 26.5938 20.0621C26.4606 20.0621 26.3327 20.0092 26.2385 19.9149C26.1442 19.8206 26.0913 19.6928 26.0913 19.5595V16.7519L20.9183 21.9255C20.8716 21.9722 20.8162 22.0093 20.7551 22.0346C20.6941 22.0599 20.6287 22.0729 20.5627 22.0729C20.4966 22.0729 20.4312 22.0599 20.3702 22.0346C20.3092 22.0093 20.2538 21.9722 20.2071 21.9255L18.0497 19.7675L13.8819 23.9359C13.7876 24.0302 13.6597 24.0832 13.5263 24.0832C13.3929 24.0832 13.265 24.0302 13.1707 23.9359C13.0764 23.8416 13.0234 23.7137 13.0234 23.5803C13.0234 23.4469 13.0764 23.319 13.1707 23.2247L17.6941 18.7013C17.7408 18.6546 17.7962 18.6175 17.8572 18.5922C17.9182 18.5669 17.9836 18.5539 18.0497 18.5539C18.1157 18.5539 18.1811 18.5669 18.2422 18.5922C18.3032 18.6175 18.3586 18.6546 18.4053 18.7013L20.5627 20.8594L25.3807 16.0413H22.5731C22.4398 16.0413 22.3119 15.9884 22.2177 15.8941C22.1234 15.7999 22.0705 15.672 22.0705 15.5387C22.0705 15.4054 22.1234 15.2776 22.2177 15.1833C22.3119 15.0891 22.4398 15.0361 22.5731 15.0361H26.5938C26.7271 15.0361 26.855 15.0891 26.9492 15.1833C27.0435 15.2776 27.0964 15.4054 27.0964 15.5387Z" fill="white"/>
</g>
<defs>
<clipPath id="clip0_4915_100640">
<rect width="42" height="43" fill="white" transform="translate(0.332031)"/>
</clipPath>
</defs>
</svg>
