<svg width="16" height="16" viewBox="0 0 16 16" fill="none" xmlns="http://www.w3.org/2000/svg">
<g id="u:angle-right-b">
<path id="Vector" d="M5.34495 7.46765L9.58995 3.23015C9.65967 3.15985 9.74263 3.10406 9.83402 3.06598C9.92541 3.0279 10.0234 3.0083 10.1225 3.0083C10.2215 3.0083 10.3195 3.0279 10.4109 3.06598C10.5023 3.10406 10.5852 3.15985 10.655 3.23015C10.7946 3.37067 10.873 3.56076 10.873 3.7589C10.873 3.95704 10.7946 4.14713 10.655 4.28765L6.94245 8.03765L10.655 11.7501C10.7946 11.8907 10.873 12.0808 10.873 12.2789C10.873 12.477 10.7946 12.6671 10.655 12.8076C10.5855 12.8785 10.5027 12.9349 10.4113 12.9735C10.3198 13.0121 10.2217 13.0322 10.1225 13.0326C10.0232 13.0322 9.92506 13.0121 9.83365 12.9735C9.74225 12.9349 9.65941 12.8785 9.58995 12.8076L5.34495 8.57015C5.26882 8.49992 5.20807 8.41468 5.16651 8.3198C5.12496 8.22493 5.1035 8.12248 5.1035 8.0189C5.1035 7.91532 5.12496 7.81287 5.16651 7.71799C5.20807 7.62312 5.26882 7.53788 5.34495 7.46765Z" fill="black"/>
</g>
</svg>
