<svg width="20" height="20" viewBox="0 0 20 20" fill="none" xmlns="http://www.w3.org/2000/svg">
<g id="u:exit">
<path id="Vector" d="M16.667 10.0003C16.667 10.2213 16.5792 10.4333 16.4229 10.5896C16.2666 10.7459 16.0547 10.8337 15.8337 10.8337H9.50866L11.4253 12.742C11.5034 12.8195 11.5654 12.9116 11.6077 13.0132C11.65 13.1147 11.6718 13.2236 11.6718 13.3337C11.6718 13.4437 11.65 13.5526 11.6077 13.6541C11.5654 13.7557 11.5034 13.8479 11.4253 13.9253C11.3479 14.0034 11.2557 14.0654 11.1541 14.1077C11.0526 14.15 10.9437 14.1718 10.8337 14.1718C10.7236 14.1718 10.6147 14.15 10.5132 14.1077C10.4116 14.0654 10.3195 14.0034 10.242 13.9253L6.90866 10.592C6.83279 10.5127 6.77332 10.4193 6.73366 10.317C6.65031 10.1141 6.65031 9.88654 6.73366 9.68366C6.77332 9.58137 6.83279 9.48791 6.90866 9.40866L10.242 6.07533C10.3197 5.99763 10.4119 5.93599 10.5135 5.89394C10.615 5.85189 10.7238 5.83025 10.8337 5.83025C10.9435 5.83025 11.0523 5.85189 11.1539 5.89394C11.2554 5.93599 11.3476 5.99763 11.4253 6.07533C11.503 6.15302 11.5647 6.24527 11.6067 6.34678C11.6488 6.4483 11.6704 6.55711 11.6704 6.66699C11.6704 6.77687 11.6488 6.88568 11.6067 6.9872C11.5647 7.08872 11.503 7.18096 11.4253 7.25866L9.50866 9.16699H15.8337C16.0547 9.16699 16.2666 9.25479 16.4229 9.41107C16.5792 9.56735 16.667 9.77931 16.667 10.0003ZM5.83366 1.66699H14.167C14.83 1.66699 15.4659 1.93038 15.9348 2.39923C16.4036 2.86807 16.667 3.50395 16.667 4.16699V6.66699C16.667 6.88801 16.5792 7.09997 16.4229 7.25625C16.2666 7.41253 16.0547 7.50033 15.8337 7.50033C15.6126 7.50033 15.4007 7.41253 15.2444 7.25625C15.0881 7.09997 15.0003 6.88801 15.0003 6.66699V4.16699C15.0003 3.94598 14.9125 3.73402 14.7562 3.57774C14.6 3.42146 14.388 3.33366 14.167 3.33366H5.83366C5.61265 3.33366 5.40068 3.42146 5.2444 3.57774C5.08812 3.73402 5.00033 3.94598 5.00033 4.16699V15.8337C5.00033 16.0547 5.08812 16.2666 5.2444 16.4229C5.40068 16.5792 5.61265 16.667 5.83366 16.667H14.167C14.388 16.667 14.6 16.5792 14.7562 16.4229C14.9125 16.2666 15.0003 16.0547 15.0003 15.8337V13.3337C15.0003 13.1126 15.0881 12.9007 15.2444 12.7444C15.4007 12.5881 15.6126 12.5003 15.8337 12.5003C16.0547 12.5003 16.2666 12.5881 16.4229 12.7444C16.5792 12.9007 16.667 13.1126 16.667 13.3337V15.8337C16.667 16.4967 16.4036 17.1326 15.9348 17.6014C15.4659 18.0703 14.83 18.3337 14.167 18.3337H5.83366C5.17062 18.3337 4.53473 18.0703 4.06589 17.6014C3.59705 17.1326 3.33366 16.4967 3.33366 15.8337V4.16699C3.33366 3.50395 3.59705 2.86807 4.06589 2.39923C4.53473 1.93038 5.17062 1.66699 5.83366 1.66699Z" fill="#2C313A"/>
</g>
</svg>
