<svg width="28" height="28" viewBox="0 0 28 28" fill="none" xmlns="http://www.w3.org/2000/svg">
<g id="vscode-icons:file-type-excel">
<path id="Vector" d="M17.1336 13.4328L7.44824 11.7266V24.3344C7.44836 24.4714 7.47545 24.607 7.52797 24.7335C7.58049 24.86 7.65742 24.9749 7.75435 25.0717C7.85128 25.1685 7.96632 25.2452 8.09291 25.2975C8.2195 25.3498 8.35515 25.3767 8.49212 25.3766H25.2046C25.3417 25.3769 25.4776 25.3502 25.6044 25.298C25.7311 25.2458 25.8464 25.1691 25.9435 25.0723C26.0406 24.9755 26.1177 24.8605 26.1703 24.7339C26.223 24.6073 26.2501 24.4716 26.2502 24.3344V19.6891L17.1336 13.4328Z" fill="#185C37"/>
<path id="Vector_2" d="M17.1336 2.625H8.49212C8.35515 2.62489 8.2195 2.65175 8.09291 2.70406C7.96632 2.75637 7.85128 2.8331 7.75435 2.92987C7.65742 3.02664 7.58049 3.14155 7.52797 3.26805C7.47545 3.39455 7.44836 3.53016 7.44824 3.66713V8.3125L17.1336 14L22.262 15.7063L26.2502 14V8.3125L17.1336 2.625Z" fill="#21A366"/>
<path id="Vector_3" d="M7.44824 8.3125H17.1336V14H7.44824V8.3125Z" fill="#107C41"/>
<path id="Vector_4" opacity="0.1" d="M14.38 7.17578H7.44824V21.3945H14.38C14.6562 21.3932 14.9207 21.283 15.1163 21.0879C15.3119 20.8929 15.4227 20.6286 15.4247 20.3524V8.21791C15.4227 7.9417 15.3119 7.67744 15.1163 7.48237C14.9207 7.28731 14.6562 7.17715 14.38 7.17578Z" fill="black"/>
<path id="Vector_5" opacity="0.2" d="M13.8104 7.74219H7.44824V21.9609H13.8104C14.0866 21.9596 14.3511 21.8494 14.5467 21.6543C14.7422 21.4593 14.853 21.195 14.8551 20.9188V8.78431C14.853 8.50811 14.7422 8.24384 14.5467 8.04878C14.3511 7.85371 14.0866 7.74356 13.8104 7.74219Z" fill="black"/>
<path id="Vector_6" opacity="0.2" d="M13.8104 7.74219H7.44824V20.8234H13.8104C14.0866 20.8221 14.3511 20.7119 14.5467 20.5168C14.7422 20.3218 14.853 20.0575 14.8551 19.7813V8.78431C14.853 8.50811 14.7422 8.24384 14.5467 8.04878C14.3511 7.85371 14.0866 7.74356 13.8104 7.74219Z" fill="black"/>
<path id="Vector_7" opacity="0.2" d="M13.2407 7.74219H7.44824V20.8234H13.2407C13.517 20.8221 13.7815 20.7119 13.977 20.5168C14.1726 20.3218 14.2834 20.0575 14.2855 19.7813V8.78431C14.2834 8.50811 14.1726 8.24384 13.977 8.04878C13.7815 7.85371 13.517 7.74356 13.2407 7.74219Z" fill="black"/>
<path id="Vector_8" d="M2.79475 7.74219H13.2405C13.5172 7.74196 13.7827 7.85159 13.9786 8.047C14.1745 8.24242 14.2848 8.50761 14.2852 8.78431V19.2126C14.2848 19.4893 14.1745 19.7545 13.9786 19.9499C13.7827 20.1453 13.5172 20.2549 13.2405 20.2547H2.79475C2.65771 20.2549 2.52196 20.2281 2.39528 20.1759C2.26859 20.1236 2.15344 20.0469 2.05642 19.9501C1.95939 19.8533 1.88239 19.7384 1.82981 19.6118C1.77724 19.4853 1.75011 19.3496 1.75 19.2126V8.78431C1.75011 8.64727 1.77724 8.51159 1.82981 8.38504C1.88239 8.25848 1.95939 8.14353 2.05642 8.04675C2.15344 7.94997 2.26859 7.87325 2.39528 7.821C2.52196 7.76874 2.65771 7.74196 2.79475 7.74219Z" fill="url(#paint0_linear_5909_83764)"/>
<path id="Vector_9" d="M4.9873 17.3871L7.18443 13.9886L5.17193 10.6094H6.78805L7.88618 12.7733C7.98768 12.978 8.06118 13.1302 8.09443 13.2317H8.1093C8.18105 13.0672 8.25718 12.9089 8.3368 12.754L9.51105 10.6129H10.9986L8.93443 13.9729L11.0511 17.3897H9.46818L8.19943 15.0176C8.14052 14.9156 8.09046 14.8088 8.0498 14.6982H8.0288C7.99181 14.8059 7.94248 14.909 7.88181 15.0054L6.57543 17.3871H4.9873Z" fill="white"/>
<path id="Vector_10" d="M25.2052 2.625H17.1333V8.3125H26.2499V3.66713C26.2498 3.53008 26.2227 3.39441 26.1701 3.26785C26.1175 3.1413 26.0405 3.02634 25.9435 2.92956C25.8465 2.83278 25.7313 2.75607 25.6047 2.70381C25.478 2.65155 25.3422 2.62477 25.2052 2.625Z" fill="#33C481"/>
<path id="Vector_11" d="M17.1333 14H26.2499V19.6875H17.1333V14Z" fill="#107C41"/>
</g>
<defs>
<linearGradient id="paint0_linear_5909_83764" x1="3.93225" y1="6.92319" x2="12.103" y2="21.0737" gradientUnits="userSpaceOnUse">
<stop stop-color="#18884F"/>
<stop offset="0.5" stop-color="#117E43"/>
<stop offset="1" stop-color="#0B6631"/>
</linearGradient>
</defs>
</svg>
