<svg width="28" height="28" viewBox="0 0 28 28" fill="none" xmlns="http://www.w3.org/2000/svg">
<g id="vscode-icons:file-type-pdf2">
<path id="Vector" d="M21.0874 1.8125L25.9559 6.8875V26.1865H7.76904V26.2495H26.018V6.95138L21.0874 1.8125Z" fill="#909090"/>
<path id="Vector_2" d="M21.0272 1.75H7.70703V26.187H25.956V6.88888L21.0272 1.75Z" fill="#F4F4F4"/>
<path id="Vector_3" d="M7.57318 3.0625H1.98193V9.03612H19.5694V3.0625H7.57318Z" fill="#7A7B7C"/>
<path id="Vector_4" d="M19.6631 8.93503H2.0957V2.95703H19.6631V8.93503Z" fill="#DD2025"/>
<path id="Vector_5" d="M7.92048 3.96637H6.77686V8.16637H7.67636V6.74975L7.87498 6.76112C8.06798 6.7578 8.25917 6.72323 8.44111 6.65875C8.60062 6.60388 8.74737 6.51727 8.87248 6.40412C8.99979 6.29634 9.10017 6.16031 9.16561 6.00687C9.25336 5.75181 9.28471 5.48074 9.25748 5.21237C9.25202 5.02067 9.21841 4.83081 9.15773 4.64887C9.10249 4.51754 9.02052 4.39915 8.91703 4.30123C8.81354 4.20331 8.69079 4.12801 8.55661 4.08012C8.44059 4.03812 8.32072 4.00764 8.19873 3.98912C8.10635 3.97487 8.01307 3.96727 7.91961 3.96637M7.75423 5.97362H7.67636V4.67862H7.84523C7.91976 4.67325 7.99455 4.68469 8.06407 4.7121C8.13358 4.73952 8.19605 4.7822 8.24686 4.837C8.35213 4.97789 8.40838 5.14938 8.40698 5.32525C8.40698 5.5405 8.40698 5.73562 8.21273 5.873C8.07279 5.94997 7.9135 5.9855 7.75423 5.97362ZM10.9664 3.955C10.8692 3.955 10.7747 3.962 10.7082 3.96462L10.5 3.96987H9.81748V8.16987H10.6207C10.9277 8.17829 11.2333 8.12626 11.5202 8.01675C11.7512 7.92516 11.9556 7.77751 12.1152 7.58712C12.2704 7.39502 12.3818 7.17136 12.4416 6.93175C12.5103 6.66038 12.5439 6.3813 12.5414 6.10137C12.5583 5.77076 12.5327 5.43934 12.4652 5.11525C12.4012 4.87669 12.2812 4.65683 12.1152 4.47387C11.985 4.32614 11.8256 4.20697 11.6471 4.12387C11.4938 4.05293 11.3325 4.00064 11.1667 3.96812C11.1008 3.95723 11.034 3.95226 10.9672 3.95325M10.808 7.39812H10.7205V4.71712H10.7319C10.9122 4.69637 11.0948 4.72892 11.2569 4.81075C11.3756 4.90553 11.4723 5.02495 11.5404 5.16075C11.6138 5.30367 11.6562 5.46053 11.6646 5.621C11.6725 5.8135 11.6646 5.971 11.6646 6.10137C11.6682 6.25156 11.6585 6.40176 11.6357 6.55025C11.6088 6.7027 11.5589 6.8502 11.4879 6.98775C11.4074 7.11563 11.2988 7.22339 11.1702 7.30275C11.0623 7.37257 10.9344 7.40515 10.8062 7.3955M15.2512 3.96987H13.125V8.16987H14.0245V6.50387H15.162V5.72337H14.0245V4.75037H15.2495V3.96987" fill="#464648"/>
<path id="Vector_6" d="M19.0586 17.7248C19.0586 17.7248 21.8481 17.219 21.8481 18.1719C21.8481 19.1248 20.12 18.7372 19.0586 17.7248ZM16.9962 17.7974C16.553 17.8953 16.1211 18.0387 15.7073 18.2253L16.0573 17.4378C16.4073 16.6503 16.7705 15.5767 16.7705 15.5767C17.1881 16.2796 17.674 16.9396 18.2212 17.5472C17.8086 17.6087 17.3996 17.6928 16.9962 17.7992V17.7974ZM15.892 12.1099C15.892 11.2795 16.1606 11.0529 16.3697 11.0529C16.5788 11.0529 16.8142 11.1535 16.8221 11.8745C16.754 12.5995 16.6022 13.3142 16.3697 14.0043C16.0513 13.4249 15.8865 12.7736 15.8911 12.1125L15.892 12.1099ZM11.8241 21.3114C10.9683 20.7995 13.6187 19.2237 14.0991 19.1729C14.0965 19.1738 12.7201 21.8469 11.8241 21.3114ZM22.6627 18.2848C22.654 18.1973 22.5752 17.2287 20.8515 17.2698C20.133 17.2582 19.4148 17.3088 18.7051 17.4212C18.0176 16.7285 17.4255 15.9472 16.9446 15.098C17.2476 14.2225 17.4309 13.3101 17.4897 12.3855C17.4643 11.3355 17.2132 10.7335 16.4082 10.7423C15.6032 10.751 15.486 11.4554 15.5918 12.5037C15.6956 13.2081 15.8912 13.8959 16.1737 14.5494C16.1737 14.5494 15.8018 15.707 15.3101 16.8585C14.8183 18.01 14.4823 18.6138 14.4823 18.6138C13.6272 18.8922 12.8222 19.3057 12.098 19.8388C11.377 20.5099 11.0838 21.0253 11.4636 21.5407C11.7908 21.9852 12.9362 22.0858 13.96 20.7444C14.5039 20.0516 15.0009 19.3231 15.4475 18.5639C15.4475 18.5639 17.0085 18.136 17.4941 18.0188C17.9797 17.9015 18.5668 17.8088 18.5668 17.8088C18.5668 17.8088 19.9922 19.2429 21.3668 19.1922C22.7415 19.1414 22.675 18.3705 22.6662 18.2865" fill="#DD2025"/>
<path id="Vector_7" d="M20.96 1.81641V6.95528H25.8888L20.96 1.81641Z" fill="#909090"/>
<path id="Vector_8" d="M21.0273 1.75V6.88888H25.9562L21.0273 1.75Z" fill="#F4F4F4"/>
<path id="Vector_9" d="M7.8531 3.89997H6.70947V8.09997H7.61247V6.68422L7.81197 6.69559C8.00497 6.69227 8.19616 6.6577 8.3781 6.59322C8.5376 6.53833 8.68434 6.45172 8.80947 6.33859C8.93583 6.23052 9.03529 6.09451 9.09997 5.94134C9.18773 5.68628 9.21908 5.4152 9.19185 5.14684C9.18638 4.95514 9.15277 4.76528 9.0921 4.58334C9.03686 4.45201 8.95489 4.33362 8.8514 4.2357C8.7479 4.13778 8.62516 4.06248 8.49097 4.01459C8.37442 3.97218 8.25396 3.94141 8.13135 3.92272C8.03897 3.90846 7.94569 3.90086 7.85222 3.89997M7.68685 5.90722H7.60897V4.61222H7.77872C7.85326 4.60684 7.92804 4.61828 7.99756 4.6457C8.06708 4.67311 8.12954 4.71579 8.18035 4.77059C8.28563 4.91148 8.34187 5.08297 8.34047 5.25884C8.34047 5.47409 8.34047 5.66922 8.14622 5.80659C8.00628 5.88356 7.84699 5.91822 7.68772 5.90634M10.899 3.88859C10.8018 3.88859 10.7073 3.89559 10.6408 3.89822L10.4352 3.90347H9.75272V8.10347H10.556C10.8629 8.11188 11.1686 8.05985 11.4555 7.95034C11.6864 7.85875 11.8909 7.7111 12.0505 7.52072C12.2057 7.32862 12.3171 7.10495 12.3768 6.86534C12.4456 6.59398 12.4791 6.31489 12.4766 6.03497C12.4936 5.70436 12.468 5.37293 12.4005 5.04884C12.3364 4.81029 12.2164 4.59042 12.0505 4.40747C11.9203 4.25974 11.7609 4.14057 11.5823 4.05747C11.429 3.98652 11.2678 3.93423 11.102 3.90172C11.036 3.89083 10.9693 3.88585 10.9025 3.88684M10.7432 7.33172H10.6557V4.65072H10.6671C10.8475 4.62996 11.03 4.66251 11.1921 4.74434C11.3108 4.83913 11.4075 4.95854 11.4756 5.09434C11.5491 5.23726 11.5914 5.39412 11.5998 5.55459C11.6077 5.74709 11.5998 5.90459 11.5998 6.03497C11.6034 6.18515 11.5937 6.33535 11.571 6.48384C11.544 6.63629 11.4941 6.78379 11.4231 6.92134C11.3427 7.04923 11.234 7.15699 11.1055 7.23634C10.9975 7.30617 10.8697 7.33874 10.7415 7.32909M15.1838 3.90347H13.0576V8.10347H13.9571V6.43747H15.0946V5.65697H13.9571V4.68397H15.1821V3.90347" fill="white"/>
</g>
</svg>
