<svg width="40" height="40" viewBox="0 0 40 40" fill="none" xmlns="http://www.w3.org/2000/svg">
<rect width="40" height="40" rx="20" fill="#FEF0C7"/>
<g clip-path="url(#clip0_6684_120550)">
<path fill-rule="evenodd" clip-rule="evenodd" d="M19.9997 12.5026C15.8575 12.5026 12.4997 15.8605 12.4997 20.0026C12.4997 24.1447 15.8575 27.5026 19.9997 27.5026C24.1418 27.5026 27.4997 24.1447 27.4997 20.0026C27.4997 15.8605 24.1418 12.5026 19.9997 12.5026ZM10.833 20.0026C10.833 14.94 14.9371 10.8359 19.9997 10.8359C25.0623 10.8359 29.1663 14.94 29.1663 20.0026C29.1663 25.0652 25.0623 29.1693 19.9997 29.1693C14.9371 29.1693 10.833 25.0652 10.833 20.0026Z" fill="#DC6803"/>
<path fill-rule="evenodd" clip-rule="evenodd" d="M20.0003 14.1641C20.4606 14.1641 20.8337 14.5372 20.8337 14.9974V19.4824L23.7063 20.9187C24.118 21.1245 24.2848 21.6251 24.079 22.0367C23.8732 22.4484 23.3726 22.6152 22.961 22.4094L19.6276 20.7428C19.3453 20.6016 19.167 20.313 19.167 19.9974V14.9974C19.167 14.5372 19.5401 14.1641 20.0003 14.1641Z" fill="#DC6803"/>
</g>
<defs>
<clipPath id="clip0_6684_120550">
<rect width="20" height="20" fill="white" transform="translate(10 10)"/>
</clipPath>
</defs>
</svg>
