<svg width="24" height="24" viewBox="0 0 24 24" fill="none" xmlns="http://www.w3.org/2000/svg">
<path fill-rule="evenodd" clip-rule="evenodd" d="M12 3C11.576 3 11.1596 3.11238 10.7929 3.32577C10.427 3.53866 10.1235 3.84453 9.91297 4.21256L9.91148 4.21517L2.32355 17.3654C2.11195 17.7331 2.00038 18.1502 2 18.5748C1.99963 18.9994 2.11047 19.4167 2.32142 19.7848C2.53237 20.1529 2.83602 20.4589 3.20196 20.6722C3.5679 20.8854 3.98327 20.9985 4.40646 21L4.41011 21H19.5899L19.5935 21C20.0167 20.9985 20.4321 20.8854 20.798 20.6722C21.164 20.4589 21.4676 20.1529 21.6786 19.7848C21.8895 19.4167 22.0004 18.9994 22 18.5748C21.9996 18.1502 21.888 17.7331 21.6764 17.3654L14.0885 4.21517L14.0871 4.21268C13.8766 3.8446 13.5731 3.53868 13.2071 3.32577C12.8404 3.11238 12.424 3 12 3ZM13.035 10.2694C13.035 9.69583 12.5716 9.2309 12 9.2309C11.4284 9.2309 10.965 9.69583 10.965 10.2694V13.0386C10.965 13.6121 11.4284 14.077 12 14.077C12.5716 14.077 13.035 13.6121 13.035 13.0386V10.2694ZM13.38 16.5C13.38 17.2647 12.7622 17.8846 12 17.8846C11.2379 17.8846 10.62 17.2647 10.62 16.5C10.62 15.7354 11.2379 15.1154 12 15.1154C12.7622 15.1154 13.38 15.7354 13.38 16.5Z" fill="#F26D0F"/>
</svg>
