<svg width="16" height="16" viewBox="0 0 16 16" fill="none" xmlns="http://www.w3.org/2000/svg">
<path d="M8.00261 1.33301C11.6846 1.33301 14.6693 4.31767 14.6693 7.99967C14.6693 11.6817 11.6846 14.6663 8.00261 14.6663C6.82447 14.6682 5.66705 14.3565 4.64928 13.763L1.33861 14.6663L2.23995 11.3543C1.64601 10.3363 1.33398 9.17834 1.33595 7.99967C1.33595 4.31767 4.32061 1.33301 8.00261 1.33301ZM5.73061 4.86634L5.59728 4.87167C5.51096 4.87693 5.4266 4.89961 5.34928 4.93834C5.27696 4.97929 5.21094 5.03049 5.15328 5.09034C5.07328 5.16567 5.02795 5.23101 4.97928 5.29434C4.73269 5.61494 4.59993 6.00855 4.60195 6.41301C4.60328 6.73967 4.68861 7.05767 4.82195 7.35501C5.09461 7.95634 5.54328 8.59301 6.13528 9.18301C6.27795 9.32501 6.41795 9.46767 6.56861 9.60034C7.30421 10.248 8.18078 10.715 9.12861 10.9643L9.50728 11.0223C9.63061 11.029 9.75395 11.0197 9.87795 11.0137C10.0721 11.0037 10.2617 10.9511 10.4333 10.8597C10.5206 10.8147 10.6058 10.7658 10.6886 10.713C10.6886 10.713 10.7173 10.6943 10.7719 10.653C10.8619 10.5863 10.9173 10.539 10.9919 10.461C11.0473 10.4037 11.0953 10.3363 11.1319 10.2597C11.1839 10.151 11.2359 9.94367 11.2573 9.77101C11.2733 9.63901 11.2686 9.56701 11.2666 9.52234C11.2639 9.45101 11.2046 9.37701 11.1399 9.34567L10.7519 9.17167C10.7519 9.17167 10.1719 8.91901 9.81728 8.75767C9.78017 8.74147 9.7404 8.7322 9.69995 8.73034C9.65433 8.72566 9.60825 8.73079 9.56478 8.74539C9.52131 8.76 9.48148 8.78373 9.44795 8.81501C9.44461 8.81367 9.39995 8.85167 8.91795 9.43567C8.89028 9.47285 8.85217 9.50094 8.80848 9.51638C8.76479 9.53181 8.71749 9.53389 8.67261 9.52234C8.62918 9.5107 8.58663 9.49599 8.54528 9.47834C8.46261 9.44367 8.43395 9.43034 8.37728 9.40634C7.99466 9.23937 7.6404 9.01377 7.32728 8.73767C7.24328 8.66434 7.16528 8.58434 7.08528 8.50701C6.823 8.25583 6.59443 7.97168 6.40528 7.66167L6.36595 7.59834C6.33769 7.55578 6.31485 7.50988 6.29795 7.46167C6.27261 7.36367 6.33861 7.28501 6.33861 7.28501C6.33861 7.28501 6.50061 7.10767 6.57595 7.01167C6.64928 6.91834 6.71128 6.82767 6.75128 6.76301C6.82995 6.63634 6.85461 6.50634 6.81328 6.40567C6.62661 5.94967 6.43328 5.49567 6.23461 5.04501C6.19528 4.95567 6.07861 4.89167 5.97261 4.87901C5.93661 4.87501 5.90061 4.87101 5.86461 4.86834C5.77508 4.86389 5.68537 4.86478 5.59595 4.87101L5.72995 4.86567L5.73061 4.86634Z" fill="#00AC64"/>
</svg>
