<svg width="12" height="12" viewBox="0 0 12 12" fill="none" xmlns="http://www.w3.org/2000/svg">
<g id="Group">
<path id="Vector" fill-rule="evenodd" clip-rule="evenodd" d="M8.75394 5.83828C9.21412 5.83843 9.6678 5.72977 10.078 5.52116C10.4881 5.31255 10.8432 5.00991 11.1141 4.63794C11.385 4.26596 11.5641 3.8352 11.6368 3.38081C11.7096 2.92641 11.6738 2.46127 11.5325 2.02333C11.4644 1.81319 11.2017 1.76974 11.0447 1.92605L9.29875 3.67202C9.25851 3.71425 9.20664 3.74357 9.14971 3.75627C9.09279 3.76897 9.03337 3.76448 8.979 3.74337C8.50494 3.54565 8.1279 3.16908 7.9296 2.69526C7.90843 2.64079 7.90391 2.58127 7.91661 2.52423C7.92931 2.46719 7.95866 2.41521 8.00094 2.37486L9.74822 0.628888C9.90388 0.47258 9.86107 0.209257 9.65093 0.141156C9.19778 -0.00513978 8.71572 -0.0383386 8.24679 0.0444553C7.77786 0.127249 7.33632 0.323521 6.96066 0.61615C6.58501 0.90878 6.28666 1.28888 6.09164 1.72329C5.89662 2.1577 5.81085 2.63324 5.84182 3.10841C5.87749 3.67462 5.7588 4.28104 5.32296 4.64425L0.633726 8.55129C0.445526 8.70859 0.292141 8.90335 0.183337 9.12317C0.0745327 9.343 0.0126938 9.58307 0.00175721 9.82811C-0.00917937 10.0731 0.0310261 10.3178 0.119814 10.5464C0.208601 10.7751 0.344025 10.9827 0.517464 11.1562C0.690902 11.3296 0.898554 11.465 1.1272 11.5538C1.35584 11.6426 1.60047 11.6828 1.84551 11.6719C2.09054 11.6609 2.33061 11.5991 2.55044 11.4903C2.77027 11.3815 2.96503 11.2281 3.12233 11.0399L7.02937 6.35066C7.39257 5.91481 7.999 5.79612 8.56521 5.83179C8.62747 5.83633 8.69038 5.83828 8.75394 5.83828ZM2.59244 9.72976C2.59244 9.90177 2.5241 10.0667 2.40247 10.1884C2.28084 10.31 2.11587 10.3783 1.94386 10.3783C1.77184 10.3783 1.60687 10.31 1.48524 10.1884C1.36361 10.0667 1.29528 9.90177 1.29528 9.72976C1.29528 9.55774 1.36361 9.39278 1.48524 9.27114C1.60687 9.14951 1.77184 9.08118 1.94386 9.08118C2.11587 9.08118 2.28084 9.14951 2.40247 9.27114C2.5241 9.39278 2.59244 9.55774 2.59244 9.72976Z" fill="white"/>
<path id="Vector_2" d="M8.75541 6.81108C8.86762 6.81108 8.97917 6.80654 9.08878 6.79681L11.5236 9.23158C11.8277 9.5357 11.9985 9.94818 11.9985 10.3783C11.9985 10.8084 11.8277 11.2208 11.5236 11.525C11.2194 11.8291 10.807 11.9999 10.3769 11.9999C9.94677 11.9999 9.53429 11.8291 9.23017 11.525L6.36994 8.66472L7.77865 6.97388C7.81238 6.93302 7.87399 6.88437 8.00047 6.84676C8.16471 6.80343 8.33518 6.78873 8.50441 6.8033C8.58743 6.80849 8.6711 6.81108 8.75541 6.81108ZM3.24249 2.3268L4.75368 3.83799C4.73906 3.85968 4.72161 3.87931 4.70179 3.89637L3.76135 4.67985L2.32539 3.24389H1.49716C1.43698 3.24389 1.378 3.22715 1.3268 3.19553C1.2756 3.16392 1.2342 3.11868 1.20724 3.06489L0.104657 0.858419C0.0741894 0.797596 0.06362 0.728733 0.0744448 0.661573C0.0852695 0.594413 0.11694 0.532357 0.164975 0.484188L0.482779 0.166384C0.530873 0.118243 0.592893 0.0864506 0.660056 0.0755089C0.727219 0.0645673 0.796123 0.0750307 0.85701 0.105418L3.06348 1.208C3.11747 1.23506 3.16284 1.27666 3.19447 1.32811C3.22609 1.37956 3.24273 1.43882 3.24249 1.49922V2.3268Z" fill="white"/>
</g>
</svg>
